PathFileType	4	(X/Y/Z)	c:/Users/goper/Files/vsCode/490R/osim_files/C05/C05_ROM.trc
DataRate	CameraRate	NumFrames	NumMarkers	Units                	OrigDataRate	OrigDataStartFrame	OrigNumFrames
250.00	250.00	4	36	mm	250.0	1667	3332
                Frame#	Time	LPSIS			LASIS			LTH1			LTH2			LTH3			LTH4			LLFE			LMFE			LSH1			LSH2			LSH3			LSH4			LLMAL			LMMAL			LCAL			LMTP5			LTOE			LMTP1			RPSIS			RASIS			RTH1			RTH2			RTH3			RTH4			RLFE			RMFE			RSH1			RSH2			RSH3			RSH4			RLMAL			RMMAL			RCAL			RMTP1			RTOE			RMTP5		
		X1	Y1	Z1	X2	Y2	Z2	X3	Y3	Z3	X4	Y4	Z4	X5	Y5	Z5	X6	Y6	Z6	X7	Y7	Z7	X8	Y8	Z8	X9	Y9	Z9	X10	Y10	Z10	X11	Y11	Z11	X12	Y12	Z12	X13	Y13	Z13	X14	Y14	Z14	X15	Y15	Z15	X16	Y16	Z16	X17	Y17	Z17	X18	Y18	Z18	X19	Y19	Z19	X20	Y20	Z20	X21	Y21	Z21	X22	Y22	Z22	X23	Y23	Z23	X24	Y24	Z24	X25	Y25	Z25	X26	Y26	Z26	X27	Y27	Z27	X28	Y28	Z28	X29	Y29	Z29	X30	Y30	Z30	X31	Y31	Z31	X32	Y32	Z32	X33	Y33	Z33	X34	Y34	Z34	X35	Y35	Z35	X36	Y36	Z36

1667	6.66400	-573.92322	821.94446	399.26544	0.00000	0.00000	0.00000	-329.83719	536.07202	267.41138	-272.72546	509.39423	267.63620	-291.46732	600.78723	260.69690	-240.09628	565.44928	262.15378	0.00000	0.00000	0.00000	-138.45959	480.06815	395.35812	-265.64752	358.63361	266.13443	-279.98914	316.52551	266.88766	-208.65475	333.27875	249.77054	-231.75099	295.53720	254.24054	-354.09381	96.37069	281.54501	-320.48166	108.02069	364.58997	-415.26993	69.19495	334.15790	-221.79836	40.48568	243.64867	-181.80223	66.43904	301.29559	-192.81116	46.66285	350.16245	-572.84094	824.21991	509.15417	0.00000	0.00000	0.00000	-353.45398	532.58954	673.75769	-298.33704	501.65845	676.63837	-312.06931	593.03870	690.60370	-263.01959	553.97803	693.65234	-170.52130	480.93698	691.25128	-148.73802	465.36227	570.89130	-266.91068	365.52576	691.30585	-281.36292	319.20172	687.64545	-212.44197	338.64432	694.45502	-234.07460	297.59583	689.43976	-359.47598	95.59920	646.98059	-335.03464	110.06009	565.51276	-427.12119	68.71951	596.98438	-212.04607	44.46419	569.33124	-191.95996	67.19292	617.46893	-239.13492	33.63346	681.17096
1668	6.66800	-573.50317	824.91785	399.19836	0.00000	0.00000	0.00000	-330.12802	537.72986	267.53735	-273.34399	510.87402	267.93628	-291.04895	602.43005	260.52094	-240.16948	566.52368	262.08829	0.00000	0.00000	0.00000	-139.05344	480.55441	395.27545	-266.16098	358.79468	266.07275	-280.44266	316.63275	266.86511	-209.06950	333.52481	249.72150	-232.09946	295.75369	254.20164	-354.14148	96.38010	281.51984	-320.53040	108.03684	364.57172	-415.29236	69.19382	334.12900	-221.81943	40.49180	243.65216	-181.83820	66.46294	301.29471	-192.86214	46.67368	350.18228	-572.36755	827.25952	509.13895	0.00000	0.00000	0.00000	-353.58963	534.25208	673.51288	-298.59003	502.95609	676.26624	-311.78668	594.34888	690.44769	-263.03616	555.03418	693.44464	-171.03577	481.37833	690.86810	-149.24168	465.81293	570.56897	-267.42200	365.74185	691.04828	-282.06586	319.53088	687.57800	-212.88333	338.97137	694.23688	-234.45917	297.84879	689.25592	-359.50989	95.62406	646.97119	-335.08066	110.05787	565.49225	-427.11780	68.70679	596.98309	-212.07417	44.48361	569.33948	-191.98894	67.23441	617.48383	-239.14294	33.66049	681.16864
1669	6.67200	-573.06122	827.90601	399.08121	0.00000	0.00000	0.00000	-330.40439	539.39990	267.60101	-273.45166	512.18494	267.72314	-290.87766	603.80920	260.49561	-240.24634	567.66156	262.06729	0.00000	0.00000	0.00000	-139.58960	481.03009	395.24579	-266.65659	358.98083	266.04401	-280.88431	316.76904	266.87546	-209.47789	333.79749	249.68152	-232.48085	295.96918	254.19745	-354.19357	96.36306	281.50140	-320.62601	108.04078	364.53033	-415.30637	69.18578	334.10266	-221.83766	40.53570	243.65602	-181.85269	66.50336	301.29214	-192.84639	46.71779	350.17435	-571.91638	830.22681	509.09750	0.00000	0.00000	0.00000	-353.72757	535.96082	673.24890	-299.02600	504.33447	676.05151	-311.26636	595.69720	690.22015	-263.11163	556.06805	693.21661	-171.53851	481.88019	690.50378	-149.46754	466.37488	570.26666	-267.89801	365.95929	690.77484	-282.43234	319.75183	687.38373	-213.35318	339.28867	694.01746	-234.84245	298.11069	689.09863	-359.57690	95.63351	646.95123	-335.13525	110.06075	565.46753	-427.18436	68.72153	596.94885	-212.08458	44.51823	569.33496	-192.00600	67.26826	617.48181	-239.16750	33.68916	681.14325
1670	6.67600	-572.61591	830.84796	398.97366	0.00000	0.00000	0.00000	-330.58688	541.00043	267.64841	-273.81622	513.55585	267.75385	-291.20190	604.84003	260.67661	-240.32156	568.76086	262.03363	0.00000	0.00000	0.00000	-140.11742	481.55283	395.19571	-267.15952	359.14828	266.02621	-281.33701	316.97159	266.87109	-209.98030	334.03922	249.67824	-232.97308	296.17603	254.19539	-354.24191	96.36290	281.46658	-320.72015	108.07301	364.49283	-415.31641	69.18150	334.07367	-221.86693	40.55765	243.66066	-181.83322	66.54692	301.27762	-192.83977	46.78731	350.16290	-571.37506	833.22296	508.92444	0.00000	0.00000	0.00000	-353.85120	537.59491	673.06000	-299.45724	505.64709	675.96936	-311.49368	597.02655	690.04578	-263.15903	557.08038	692.95160	-171.96352	482.36682	690.17896	-150.41927	466.61298	569.96527	-268.31952	366.17035	690.51001	-282.80966	319.99060	687.15710	-213.80017	339.57468	693.80334	-235.25294	298.39709	688.88440	-359.60623	95.65094	646.94043	-335.18195	110.07373	565.42694	-427.18216	68.70072	596.93304	-212.06960	44.58324	569.32043	-192.02867	67.33411	617.46326	-239.20750	33.72772	681.12964
